<?xml version="1.0" standalone="no"?>
<!DOCTYPE svg PUBLIC "-//W3C//DTD SVG 20010904//EN"
 "http://www.w3.org/TR/2001/REC-SVG-20010904/DTD/svg10.dtd">
<svg version="1.0" xmlns="http://www.w3.org/2000/svg"
 width="700.000000pt" height="700.000000pt" viewBox="0 0 700.000000 700.000000"
 preserveAspectRatio="xMidYMid meet">
<metadata>
Created by potrace 1.14, written by Peter Selinger 2001-2017
</metadata>
<g transform="translate(0.000000,700.000000) scale(0.100000,-0.100000)"
fill="#000000" stroke="none">
<path d="M3278 6996 c-1 -2 -39 -6 -83 -10 -471 -36 -971 -191 -1410 -434 -74
-42 -316 -197 -353 -227 -10 -8 -53 -42 -97 -76 -425 -331 -812 -824 -1020
-1299 -25 -58 -52 -118 -59 -135 -51 -115 -148 -423 -171 -546 -3 -13 -11 -58
-20 -99 -29 -147 -36 -199 -52 -370 -15 -164 -8 -592 12 -711 2 -13 6 -46 9
-74 9 -78 22 -152 51 -285 21 -96 91 -339 114 -395 5 -11 25 -65 46 -120 63
-166 249 -531 312 -610 4 -6 34 -49 65 -95 52 -78 214 -285 263 -336 107 -113
219 -225 278 -279 280 -252 642 -481 987 -624 267 -111 589 -200 859 -237 25
-3 57 -8 71 -10 163 -25 682 -25 842 1 13 2 46 7 73 10 72 10 86 12 120 19 17
3 44 8 60 11 726 138 1438 544 1935 1104 36 41 70 79 75 85 62 67 240 317 320
450 179 298 346 717 411 1031 16 79 54 301 59 350 4 33 9 71 11 85 9 46 11
524 4 605 -15 153 -21 210 -25 225 -2 8 -7 35 -10 60 -17 129 -80 384 -136
552 -348 1038 -1164 1854 -2204 2206 -167 56 -419 119 -555 137 -19 3 -46 7
-60 10 -13 2 -54 7 -90 11 -36 3 -76 8 -90 11 -27 5 -536 14 -542 9z m507
-280 c39 -4 85 -9 103 -12 18 -2 54 -7 80 -10 26 -3 66 -9 90 -15 23 -5 59
-12 80 -15 115 -17 372 -93 547 -161 165 -64 523 -248 445 -228 -95 24 -141
34 -180 39 -53 8 -212 8 -255 1 -128 -22 -169 -31 -230 -52 -38 -14 -74 -28
-78 -33 -4 -4 43 -10 105 -13 175 -9 313 -63 422 -166 72 -67 148 -204 172
-306 57 -246 13 -437 -135 -584 -47 -48 -90 -78 -151 -108 -125 -63 -208 -82
-332 -79 -113 3 -188 24 -288 79 -106 59 -233 212 -271 328 -26 77 -32 34 -13
-86 16 -100 97 -306 136 -346 8 -8 21 -25 30 -38 20 -28 114 -126 154 -161 88
-74 206 -127 331 -147 92 -15 341 -9 438 11 207 43 373 143 489 296 113 149
163 293 173 501 11 230 -44 429 -170 613 l-40 60 44 -34 c24 -18 49 -38 54
-44 6 -6 37 -33 70 -60 109 -90 360 -350 414 -429 8 -12 18 -24 21 -27 13 -10
120 -159 172 -241 92 -142 178 -301 234 -430 19 -46 41 -97 48 -113 50 -112
122 -346 160 -518 3 -12 -24 -2 -104 38 l-108 53 -7 61 c-19 164 -63 235 -155
246 -56 7 -97 -15 -191 -104 l-79 -74 -63 11 c-133 23 -195 12 -247 -44 -21
-22 -25 -36 -25 -88 0 -54 6 -74 46 -151 l46 -89 -44 -95 c-56 -119 -64 -177
-33 -226 34 -56 69 -70 164 -62 45 3 97 10 116 16 55 16 61 13 135 -56 81 -76
130 -104 180 -104 90 0 135 57 151 190 3 25 7 54 9 65 2 11 4 30 4 43 1 12 5
22 10 22 17 0 187 102 208 125 l21 24 6 -37 c22 -130 30 -250 30 -447 0 -255
-13 -401 -60 -654 -3 -13 -20 -82 -39 -155 -85 -333 -226 -655 -413 -946 -61
-96 -212 -299 -236 -319 -15 -12 -15 -10 -1 28 8 22 12 41 10 41 -2 0 2 21 10
47 8 27 16 59 19 73 2 14 16 70 30 125 34 135 106 443 106 455 0 11 -82 34
-124 35 -27 0 -30 -5 -76 -120 -76 -195 -129 -286 -203 -351 -58 -51 -110 -71
-197 -80 -77 -7 -501 -7 -555 0 -16 2 -35 4 -41 5 -19 2 -24 55 -31 296 -7
281 -8 1635 -1 1760 10 176 44 202 292 230 28 3 52 8 55 10 7 8 7 175 0 187
-6 9 -581 13 -1036 8 -37 0 -43 -3 -43 -22 0 -17 -6 -13 -28 23 -60 93 -193
183 -407 274 -22 9 -49 21 -60 26 -46 19 -117 39 -181 50 -78 14 -351 18 -464
7 -208 -20 -470 -129 -680 -282 -71 -51 -233 -213 -291 -291 -100 -134 -199
-317 -252 -470 -33 -93 -65 -195 -71 -225 -30 -154 -42 -181 -126 -270 -33
-36 -70 -77 -81 -92 l-20 -28 55 -35 c30 -19 60 -35 65 -35 11 0 34 -37 37
-60 2 -13 11 -133 17 -214 2 -28 -2 -31 -55 -47 -128 -38 -234 -130 -293 -255
-19 -40 -35 -78 -35 -83 0 -16 -37 -78 -60 -101 -16 -16 -20 -30 -17 -57 3
-20 1 -48 -5 -62 -11 -27 -12 -76 -2 -123 l5 -27 49 30 c31 19 60 49 80 81 40
64 61 81 130 108 41 15 63 32 85 63 17 24 55 55 87 73 31 18 69 44 84 58 32
29 34 29 39 -13 5 -42 42 -89 76 -96 30 -7 92 -63 83 -76 -2 -4 -41 -7 -87 -5
-167 6 -272 -49 -347 -178 -20 -36 -38 -56 -50 -56 -32 0 -111 -63 -137 -110
-17 -29 -27 -67 -31 -107 -3 -42 -9 -63 -17 -63 -19 0 -62 -54 -75 -96 -7 -20
-9 -53 -6 -74 5 -34 3 -40 -16 -46 -17 -5 -31 4 -70 47 -324 358 -562 774
-704 1234 -32 103 -86 327 -98 405 -12 78 -18 150 -12 150 4 0 23 -11 44 -24
47 -29 70 -37 135 -42 82 -6 100 -13 166 -57 140 -95 306 -97 444 -4 18 12 57
21 118 27 66 6 107 16 153 38 35 17 89 37 119 46 91 26 157 116 157 213 0 88
-22 123 -137 218 -116 97 -195 142 -266 151 -35 5 -65 19 -112 54 -100 73
-155 94 -255 94 -101 -1 -168 -23 -247 -83 -63 -48 -74 -54 -145 -79 -49 -17
-92 -42 -186 -109 l-23 -16 6 104 c3 57 7 120 10 139 2 19 7 64 10 100 3 36
12 101 20 145 8 44 16 91 18 105 10 55 59 250 84 331 l27 86 24 -29 c28 -33
82 -62 132 -72 22 -4 50 -22 75 -47 60 -61 113 -81 215 -82 47 0 98 3 113 6
21 4 41 -2 81 -28 149 -95 306 -104 455 -25 47 24 69 30 136 31 121 3 202 29
255 82 19 18 45 27 104 36 102 17 227 59 309 105 108 60 145 122 111 188 -36
72 -83 106 -218 158 l-70 27 117 2 c64 1 139 6 166 11 66 12 162 52 205 85 19
15 39 24 43 22 5 -3 29 -8 53 -11 67 -8 116 11 159 61 29 32 46 43 68 43 48 0
182 38 214 61 60 43 67 101 17 162 -23 30 -101 77 -150 91 -9 3 -22 22 -27 43
-10 38 -46 80 -86 101 -17 9 -14 12 25 22 57 15 120 47 120 61 0 7 15 8 43 4
78 -14 230 -7 335 15 136 27 222 63 280 115 43 39 53 43 117 49 73 7 98 10
180 26 28 6 61 12 75 15 44 8 153 49 200 73 122 66 151 149 77 223 -18 18 -31
37 -29 42 1 4 -2 6 -7 3 -5 -4 -24 2 -43 13 -59 34 -214 77 -308 86 -14 1 -30
3 -36 3 -6 1 -19 20 -29 42 -45 100 -222 189 -490 246 -67 14 -194 34 -218 34
-19 0 -39 10 -58 31 -16 18 -28 34 -26 36 3 2 38 6 78 9 41 4 75 7 77 8 5 6
413 -1 477 -8z m549 -2731 c32 -9 71 -23 87 -32 32 -19 57 -74 65 -142 3 -25
7 -418 9 -873 l4 -826 -46 49 c-25 27 -50 49 -56 49 -6 0 -43 31 -83 70 -80
78 -149 115 -231 126 -60 7 -73 27 -54 78 25 65 -2 162 -66 237 -54 62 -54 63
-9 153 62 122 55 210 -18 256 -29 18 -104 19 -184 2 l-71 -15 -71 67 c-96 90
-140 105 -214 70 -45 -22 -70 -70 -90 -174 -9 -46 -18 -85 -19 -86 -1 -2 -25
-12 -52 -24 -123 -52 -175 -107 -175 -182 0 -62 37 -99 163 -164 66 -34 67
-35 68 -77 0 -23 3 -69 5 -102 5 -60 5 -61 -37 -103 -24 -23 -49 -42 -56 -42
-26 0 -91 -39 -118 -72 -48 -56 -78 -134 -78 -200 l0 -58 -46 43 c-112 104
-252 155 -451 161 -120 4 -240 -11 -322 -40 -55 -19 -55 -19 -63 19 -10 42
-26 64 -130 172 l-86 90 5 141 c5 156 8 174 39 254 50 129 148 264 263 360 77
63 304 180 351 180 18 0 13 -16 -37 -130 -65 -145 -104 -317 -75 -327 6 -2 37
22 69 52 56 52 72 60 104 56 28 -4 79 21 118 57 22 20 63 57 90 82 61 55 111
117 144 178 20 38 30 46 55 48 17 1 93 5 170 8 250 10 371 34 533 104 132 57
228 118 297 188 169 173 183 193 192 280 7 62 11 64 107 39z m162 -2160 c-5
-106 -26 -182 -59 -213 -30 -28 -89 -42 -174 -42 -66 0 -73 -2 -74 -20 0 -11
0 -49 0 -85 0 -36 0 -73 0 -83 1 -17 43 -18 865 -17 767 0 863 -2 853 -15 -34
-46 -288 -288 -382 -363 -110 -88 -316 -230 -410 -282 -142 -79 -199 -108
-295 -150 -58 -25 -114 -50 -125 -55 -153 -68 -634 -197 -643 -172 -2 6 -14
27 -28 47 -13 20 -31 49 -40 66 -40 78 -178 202 -276 247 -35 16 -48 28 -53
50 -8 38 -59 90 -110 113 -22 10 -53 35 -69 55 -19 24 -54 48 -104 71 l-75 35
44 19 c24 11 46 24 49 28 10 15 75 45 105 48 17 2 62 19 102 38 136 67 202
175 189 310 -7 72 -22 114 -65 172 l-30 42 57 6 c78 8 127 22 194 56 42 21 78
31 130 35 128 9 144 13 204 42 33 17 77 33 99 37 42 7 115 48 115 65 0 6 2 10
5 10 3 0 3 -43 1 -95z"/>
</g>
</svg>
